<svg width="512" height="512" viewBox="0 0 512 512" fill="none" xmlns="http://www.w3.org/2000/svg">
  <rect width="512" height="512" rx="0" fill="#f0f0f0"/>
  
  <g transform="translate(110, 110)">
    <!-- Fila 1 -->
    <rect x="0" y="0" width="52" height="52" rx="4" fill="#787c7e"/>
    <rect x="60" y="0" width="52" height="52" rx="4" fill="#6aaa64"/>
    <rect x="120" y="0" width="52" height="52" rx="4" fill="#787c7e"/>
    <rect x="180" y="0" width="52" height="52" rx="4" fill="#c9b458"/>
    <rect x="240" y="0" width="52" height="52" rx="4" fill="#787c7e"/>
    
    <!-- Fila 2 -->
    <rect x="0" y="60" width="52" height="52" rx="4" fill="#c9b458"/>
    <rect x="60" y="60" width="52" height="52" rx="4" fill="#787c7e"/>
    <rect x="120" y="60" width="52" height="52" rx="4" fill="#787c7e"/>
    <rect x="180" y="60" width="52" height="52" rx="4" fill="#787c7e"/>
    <rect x="240" y="60" width="52" height="52" rx="4" fill="#6aaa64"/>
    
    <!-- Fila 3 -->
    <rect x="0" y="120" width="52" height="52" rx="4" fill="#787c7e"/>
    <rect x="60" y="120" width="52" height="52" rx="4" fill="#787c7e"/>
    <rect x="120" y="120" width="52" height="52" rx="4" fill="#6aaa64"/>
    <rect x="180" y="120" width="52" height="52" rx="4" fill="#787c7e"/>
    <rect x="240" y="120" width="52" height="52" rx="4" fill="#c9b458"/>
    
    <!-- Fila 4 -->
    <rect x="0" y="180" width="52" height="52" rx="4" fill="#787c7e"/>
    <rect x="60" y="180" width="52" height="52" rx="4" fill="#c9b458"/>
    <rect x="120" y="180" width="52" height="52" rx="4" fill="#787c7e"/>
    <rect x="180" y="180" width="52" height="52" rx="4" fill="#6aaa64"/>
    <rect x="240" y="180" width="52" height="52" rx="4" fill="#787c7e"/>
    
    <!-- Fila 5 -->
    <rect x="0" y="240" width="52" height="52" rx="4" fill="#6aaa64"/>
    <rect x="60" y="240" width="52" height="52" rx="4" fill="#6aaa64"/>
    <rect x="120" y="240" width="52" height="52" rx="4" fill="#6aaa64"/>
    <rect x="180" y="240" width="52" height="52" rx="4" fill="#6aaa64"/>
    <rect x="240" y="240" width="52" height="52" rx="4" fill="#6aaa64"/>
  </g>
</svg>
