<svg width="512" height="512" viewBox="0 0 512 512" fill="none" xmlns="http://www.w3.org/2000/svg">
  <!-- Fondo del Icono -->
  <rect width="512" height="512" rx="0" fill="#f0f0f0"/>
  
  <!-- Grupo centrado de la matriz 5x5 -->
  <!-- Cada celda mide 68x68 con 10px de separación -->
  <g transform="translate(66, 66)">
    <!-- Fila 1 -->
    <rect x="0" y="0" width="68" height="68" rx="4" fill="#787c7e"/>
    <rect x="78" y="0" width="68" height="68" rx="4" fill="#6aaa64"/>
    <rect x="156" y="0" width="68" height="68" rx="4" fill="#787c7e"/>
    <rect x="234" y="0" width="68" height="68" rx="4" fill="#c9b458"/>
    <rect x="312" y="0" width="68" height="68" rx="4" fill="#787c7e"/>
    
    <!-- Fila 2 -->
    <rect x="0" y="78" width="68" height="68" rx="4" fill="#c9b458"/>
    <rect x="78" y="78" width="68" height="68" rx="4" fill="#787c7e"/>
    <rect x="156" y="78" width="68" height="68" rx="4" fill="#787c7e"/>
    <rect x="234" y="78" width="68" height="68" rx="4" fill="#787c7e"/>
    <rect x="312" y="78" width="68" height="68" rx="4" fill="#6aaa64"/>
    
    <!-- Fila 3 -->
    <rect x="0" y="156" width="68" height="68" rx="4" fill="#787c7e"/>
    <rect x="78" y="156" width="68" height="68" rx="4" fill="#c9b458"/>
    <rect x="156" y="156" width="68" height="68" rx="4" fill="#6aaa64"/>
    <rect x="234" y="156" width="68" height="68" rx="4" fill="#787c7e"/>
    <rect x="312" y="156" width="68" height="68" rx="4" fill="#c9b458"/>
    
    <!-- Fila 4 -->
    <rect x="0" y="234" width="68" height="68" rx="4" fill="#6aaa64"/>
    <rect x="78" y="234" width="68" height="68" rx="4" fill="#787c7e"/>
    <rect x="156" y="234" width="68" height="68" rx="4" fill="#787c7e"/>
    <rect x="234" y="234" width="68" height="68" rx="4" fill="#c9b458"/>
    <rect x="312" y="234" width="68" height="68" rx="4" fill="#787c7e"/>
    
    <!-- Fila 5 (La palabra ganadora) -->
    <rect x="0" y="312" width="68" height="68" rx="4" fill="#6aaa64"/>
    <rect x="78" y="312" width="68" height="68" rx="4" fill="#6aaa64"/>
    <rect x="156" y="312" width="68" height="68" rx="4" fill="#6aaa64"/>
    <rect x="234" y="312" width="68" height="68" rx="4" fill="#6aaa64"/>
    <rect x="312" y="312" width="68" height="68" rx="4" fill="#6aaa64"/>
  </g>
</svg>
